<svg width="70" height="70" viewBox="0 0 70 70" fill="none" xmlns="http://www.w3.org/2000/svg">
<path d="M11.5 23C17.8513 23 23 17.8513 23 11.5V11.5C23 5.14873 28.1487 0 34.5 0H35H35.5C41.8513 0 47 5.14873 47 11.5V11.5C47 17.8513 52.1487 23 58.5 23V23C64.8513 23 70 28.1487 70 34.5V35V35.5C70 41.8513 64.8513 47 58.5 47V47C52.1487 47 47 52.1487 47 58.5V58.5C47 64.8513 41.8513 70 35.5 70H35H34.5C28.1487 70 23 64.8513 23 58.5V58.5C23 52.1487 17.8513 47 11.5 47H10.5V47C4.70101 47 0 42.299 0 36.5V35V34.5C0 28.1487 5.14873 23 11.5 23V23Z" fill="white"/>
</svg>
