<svg width="64" height="64" viewBox="0 0 64 64" fill="none" xmlns="http://www.w3.org/2000/svg">
<path d="M9.15252 17.0243C12.6732 15.484 15.484 12.6732 17.0243 9.15252C19.4568 3.5926 24.9499 0 31.0187 0H32H32.9813C39.0501 0 44.5432 3.5926 46.9757 9.15252C48.516 12.6732 51.3268 15.484 54.8475 17.0243C60.4074 19.4568 64 24.9499 64 31.0187V32V32.9813C64 39.0501 60.4074 44.5432 54.8475 46.9757C51.3268 48.516 48.516 51.3268 46.9757 54.8475C44.5432 60.4074 39.0501 64 32.9813 64H32H31.0187C24.9499 64 19.4568 60.4074 17.0243 54.8475C15.484 51.3268 12.6732 48.516 9.15252 46.9757C3.5926 44.5432 0 39.0501 0 32.9813V32V31.0187C0 24.9499 3.5926 19.4568 9.15252 17.0243Z" fill="white"/>
</svg>
