<svg width="62" height="62" viewBox="0 0 62 62" fill="none" xmlns="http://www.w3.org/2000/svg">
<path d="M7.34612 10.8215C8.34922 9.51744 9.51744 8.34922 10.8215 7.34612L15.2492 3.94014C18.5706 1.38525 22.6434 0 26.8337 0H31H35.1663C39.3566 0 43.4294 1.38525 46.7508 3.94014L51.1785 7.34612C52.4826 8.34922 53.6508 9.51744 54.6539 10.8215L58.0599 15.2492C60.6147 18.5706 62 22.6434 62 26.8337V31V35.1663C62 39.3566 60.6147 43.4294 58.0599 46.7508L54.6539 51.1785C53.6508 52.4826 52.4826 53.6508 51.1785 54.6539L46.7508 58.0599C43.4294 60.6147 39.3566 62 35.1663 62H31H26.8337C22.6434 62 18.5706 60.6147 15.2492 58.0599L10.8215 54.6539C9.51744 53.6508 8.34922 52.4826 7.34612 51.1785L3.94014 46.7508C1.38525 43.4294 0 39.3566 0 35.1663V31V26.8337C0 22.6434 1.38525 18.5706 3.94014 15.2492L7.34612 10.8215Z" fill="white"/>
</svg>
